<svg width="24" height="25" viewBox="0 0 24 25" fill="none" xmlns="http://www.w3.org/2000/svg">
<path d="M10.486 16.9335C10.3547 16.9338 10.2247 16.9081 10.1034 16.858C9.98204 16.8079 9.87181 16.7343 9.77899 16.6415L5.53699 12.3985C5.44141 12.3063 5.36516 12.196 5.31266 12.0741C5.26017 11.9521 5.23249 11.8209 5.23125 11.6881C5.23 11.5554 5.25521 11.4237 5.3054 11.3007C5.3556 11.1778 5.42977 11.0661 5.52359 10.9721C5.61742 10.8782 5.72902 10.8038 5.85188 10.7535C5.97474 10.7031 6.1064 10.6777 6.23918 10.6788C6.37196 10.6798 6.50319 10.7073 6.62523 10.7596C6.74727 10.812 6.85767 10.8881 6.94999 10.9835L10.485 14.5185L16.85 8.15551C17.0375 7.96787 17.2919 7.8624 17.5571 7.8623C17.8224 7.86221 18.0768 7.9675 18.2645 8.15501C18.4521 8.34252 18.5576 8.59688 18.5577 8.86215C18.5578 9.12742 18.4525 9.38187 18.265 9.56951L11.193 16.6415C11.1002 16.7343 10.9899 16.8079 10.8686 16.858C10.7473 16.9081 10.6173 16.9338 10.486 16.9335Z" fill="#15803D"/>
</svg>
